<svg width="19" height="25" viewBox="0 0 19 25" fill="none" xmlns="http://www.w3.org/2000/svg">
<mask id="mask0_344_1111" style="mask-type:alpha" maskUnits="userSpaceOnUse" x="0" y="0" width="19" height="25">
<path d="M18 9.75C18 5.19375 14.3062 1.5 9.75 1.5C5.19375 1.5 1.5 5.19375 1.5 9.75C1.5 15.75 9.75 24 9.75 24C9.75 24 18 15.75 18 9.75Z" fill="#37B567" stroke="black" stroke-width="1.2" stroke-miterlimit="10" stroke-linejoin="round"/>
</mask>
<g mask="url(#mask0_344_1111)">
<path d="M19.1717 8.03439L17.9757 3.80784C17.7073 2.8478 17.1612 2.00746 16.4185 1.41157C15.6758 0.815673 14.7761 0.49601 13.853 0.500038H-9.76508C-10.6883 0.496362 -11.588 0.816348 -12.3307 1.4125C-13.0734 2.00866 -13.6195 2.84921 -13.8878 3.8094L-14.5203 6.04377C-14.6156 6.38025 -14.6036 6.74186 -14.4862 7.06999C-14.3688 7.39812 -14.1529 7.67353 -13.8734 7.85158L7.20313 21.3281C7.48497 21.5082 7.81487 21.5784 8.13839 21.5273C8.46192 21.4762 8.75975 21.3067 8.98275 21.0468L18.8468 9.55938C19.0196 9.3587 19.1406 9.11204 19.1976 8.84429C19.2547 8.57654 19.2457 8.29718 19.1717 8.03439Z" fill="#1F9646"/>
<path d="M-6.77814 8.76584L-12.4174 5.15648C-12.6045 5.03711 -12.8139 4.9653 -13.0301 4.94642C-13.2463 4.92755 -13.4637 4.96209 -13.6658 5.04746C-13.868 5.13284 -14.0498 5.26683 -14.1975 5.43941C-14.3453 5.61198 -14.4552 5.81867 -14.5191 6.04397L-17.3682 16.1096C-17.4561 16.4205 -17.4526 16.7535 -17.3581 17.0621C-17.2636 17.3708 -17.0828 17.6396 -16.841 17.8313C-16.5992 18.0229 -16.3084 18.1277 -16.0091 18.1311C-15.7099 18.1345 -15.4171 18.0363 -15.1717 17.8502L-6.68183 11.3908C-6.48495 11.2408 -6.32585 11.0394 -6.2191 10.8052C-6.11235 10.571 -6.06136 10.3114 -6.0708 10.0502C-6.08024 9.78904 -6.14981 9.53461 -6.27313 9.31022C-6.39646 9.08584 -6.5696 8.89866 -6.7767 8.76584H-6.77814ZM22.3987 19.4346L19.1701 8.03459C19.0958 7.77302 18.9596 7.53725 18.7751 7.35089C18.5907 7.16453 18.3644 7.03412 18.1189 6.97273C17.8735 6.91133 17.6175 6.92111 17.3767 7.00107C17.1358 7.08103 16.9185 7.22837 16.7465 7.42834L3.48415 22.872C3.29319 23.0946 3.16619 23.373 3.11875 23.6729C3.07131 23.9729 3.10549 24.2813 3.21709 24.5605C3.32869 24.8396 3.51286 25.0772 3.74697 25.2441C3.98109 25.4111 4.25496 25.5001 4.53495 25.5002H18.276C18.9508 25.5001 19.6161 25.3278 20.2185 24.9974C20.8209 24.6669 21.3435 24.1874 21.7444 23.5974C22.1452 23.0074 22.4131 22.3234 22.5265 21.6004C22.6399 20.8774 22.5971 20.1356 22.3987 19.4346Z" fill="#FF5065"/>
<path d="M8.6609 18.6343L-6.77782 8.76557C-7.01532 8.61391 -7.2879 8.53962 -7.56313 8.55153C-7.83837 8.56344 -8.10466 8.66106 -8.33031 8.83276L-16.8187 15.2905C-17.0806 15.49 -17.2738 15.7786 -17.3679 16.1109L-18.3094 19.4343C-18.5078 20.1353 -18.5521 20.8772 -18.4387 21.6002C-18.3253 22.3232 -18.0574 23.0072 -17.6565 23.5972C-17.2556 24.1871 -16.733 24.6666 -16.1306 24.9971C-15.5282 25.3276 -14.8629 25.4998 -14.1881 25.4999H4.53528C4.73242 25.4998 4.92743 25.4557 5.10821 25.3702C5.28898 25.2847 5.45164 25.1597 5.58609 25.003L8.98289 21.0468C9.12975 20.8757 9.23937 20.6709 9.30368 20.4476C9.36798 20.2243 9.38532 19.9881 9.35441 19.7566C9.3235 19.525 9.24513 19.3039 9.1251 19.1097C9.00507 18.9154 8.84643 18.753 8.6609 18.6343Z" fill="#1F9646"/>
<path d="M19.4087 8.89061L5.14877 25.4999H1.22441L5.65189 20.3437L-7.4437 11.9687L-18.498 20.3749C-18.4703 20.0555 -18.4076 19.7408 -18.3112 19.4375L-17.2187 15.5937L-10.1606 10.2187L-14.8468 7.21874L-13.9843 4.15625L7.66439 18L18.2444 5.68749C18.3007 5.61258 18.3689 5.5491 18.4456 5.5L19.4087 8.89061Z" fill="#FFCC00"/>
<path d="M9.75 12.75C11.4069 12.75 12.75 11.4069 12.75 9.75C12.75 8.09315 11.4069 6.75 9.75 6.75C8.09315 6.75 6.75 8.09315 6.75 9.75C6.75 11.4069 8.09315 12.75 9.75 12.75Z" fill="white"/>
</g>
</svg>
